<?xml version="1.0" encoding="UTF-8"?><svg xmlns="http://www.w3.org/2000/svg" xmlns:xlink="http://www.w3.org/1999/xlink" viewBox="0 0 1167.03 824.49"><defs><style>.ao{fill:url(#u);}.ao,.ap,.aq,.ar,.as,.at,.au,.av,.aw,.ax,.ay,.b`,.ba,.bb,.bc,.bd,.be,.bf,.bg,.bh,.bi,.bj,.bk,.bl,.bm,.bn,.bo,.bp,.bq,.br,.bs,.bt,.bu,.bv,.bw,.bx,.by,.c`,.ca,.cb{fill-rule:evenodd;}.ap{fill:url(#t);}.aq{fill:url(#e);}.ar{fill:url(#g);}.as{fill:url(#f);}.at{fill:url(#l);}.au{fill:url(#n);}.av{fill:url(#m);}.aw{fill:url(#h);}.ax{fill:url(#i);}.ay{fill:url(#j);}.b`{fill:url(#q);}.ba{fill:url(#s);}.bb{fill:url(#r);}.bc{fill:url(#y);}.bd{fill:url(#x);}.be{fill:url(#w);}.bf{fill:url(#a`);}.bg{fill:url(#al);}.bh{fill:url(#am);}.bi{fill:url(#af);}.bj{fill:url(#ai);}.bk{fill:url(#ad);}.bl{fill:url(#aj);}.bm{fill:url(#ae);}.bn{fill:url(#aa);}.bo{fill:url(#ab);}.bp{fill:url(#ak);}.bq{fill:url(#ac);}.bq,.br,.bt,.bw,.cc,.cd{mix-blend-mode:screen;}.br{fill:url(#k);}.bs{fill:url(#ag);}.bs,.bu,.bv{mix-blend-mode:multiply;opacity:.5;}.ce,.bx{fill:#0e0012;}.bt{fill:url(#ah);}.bt,.bw{opacity:.2;}.bu{fill:url(#o);}.bv{fill:url(#d);}.bw{fill:url(#p);}.by{fill:#130617;}.c`{fill:#180b1c;}.ca{fill:#bbb8e3;}.cc{fill:url(#v);}.cd{fill:url(#an);}.cf{isolation:isolate;}.cb{fill:#fff;mix-blend-mode:soft-light;opacity:.3;}.cg{fill:red;}.cg,.ch{font-family:VT323-Regular, VT323;font-size:48px;}.ch{fill:#39b54a;}</style><linearGradient id="d" x1="622.58" y1="396.32" x2="622.58" y2="361.01" gradientTransform="matrix(1, 0, 0, 1, 0, 0)" gradientUnits="userSpaceOnUse"><stop offset="0" stop-color="#7c0037"/><stop offset="1" stop-color="#b3bfec"/></linearGradient><radialGradient id="e" cx="93.79" cy="798.22" fx="93.79" fy="798.22" r="430.7" gradientTransform="translate(0 -370.47) scale(1 .96)" gradientUnits="userSpaceOnUse"><stop offset=".02" stop-color="#402743"/><stop offset=".99" stop-color="#2a1032"/></radialGradient><linearGradient id="f" x1="13.35" y1="107.92" x2="391.64" y2="107.92" gradientTransform="matrix(1, 0, 0, 1, 0, 0)" gradientUnits="userSpaceOnUse"><stop offset=".02" stop-color="#503953"/><stop offset=".99" stop-color="#452e4c"/></linearGradient><linearGradient id="g" x1="364.29" y1="628.44" x2="364.29" y2="421.73" gradientTransform="matrix(1, 0, 0, 1, 0, 0)" gradientUnits="userSpaceOnUse"><stop offset="0" stop-color="#6e5f85"/><stop offset="1" stop-color="#3f1f49"/></linearGradient><radialGradient id="h" cx="296.02" cy="793.46" fx="296.02" fy="793.46" r="84.74" xlink:href="#e"/><linearGradient id="i" x1="470.43" y1="398.57" x2="470.43" y2="363.42" gradientTransform="matrix(1, 0, 0, 1, 0, 0)" gradientUnits="userSpaceOnUse"><stop offset="0" stop-color="#8a6991"/><stop offset="1" stop-color="#bbb8e3"/></linearGradient><linearGradient id="j" x1="374.62" y1="686.68" x2="374.62" y2="435.8" gradientTransform="translate(-53.66 -48.59) rotate(6.72)" xlink:href="#g"/><linearGradient id="k" x1="509.75" y1="396.99" x2="509.75" y2="390.89" xlink:href="#i"/><linearGradient id="l" x1="380.87" y1="609.57" x2="380.87" y2="468.34" gradientTransform="matrix(1, 0, 0, 1, 0, 0)" gradientUnits="userSpaceOnUse"><stop offset="0" stop-color="#bbb8e3"/><stop offset="1" stop-color="#8a6991"/></linearGradient><linearGradient id="m" x1="259.82" y1="616.98" x2="259.82" y2="512.22" xlink:href="#l"/><linearGradient id="n" x1="234.76" y1="652.93" x2="234.76" y2="619.34" xlink:href="#i"/><linearGradient id="o" x1="334.57" y1="385.17" x2="375.81" y2="385.17" gradientTransform="matrix(1, 0, 0, 1, 0, 0)" gradientUnits="userSpaceOnUse"><stop offset="0" stop-color="#541d37"/><stop offset="1" stop-color="#a498c9"/></linearGradient><linearGradient id="p" x1="269.06" y1="390.89" x2="315.11" y2="390.89" xlink:href="#i"/><linearGradient id="q" x1="164.81" y1="183.58" x2="164.81" y2="0" gradientTransform="matrix(1, 0, 0, 1, 0, 0)" gradientUnits="userSpaceOnUse"><stop offset=".02" stop-color="#503953"/><stop offset=".99" stop-color="#614d67"/></linearGradient><radialGradient id="r" cx="98.57" cy="2186.33" fx="98.57" fy="2186.33" r="46.01" gradientTransform="translate(0 -1503.05) scale(1 .83)" gradientUnits="userSpaceOnUse"><stop offset="0" stop-color="#bbb8e3"/><stop offset="1" stop-color="#8a6991"/></radialGradient><linearGradient id="s" x1="31.56" y1="800.69" x2="31.56" y2="749.5" gradientTransform="matrix(1, 0, 0, 1, 0, 0)" gradientUnits="userSpaceOnUse"><stop offset="0" stop-color="#ee4887"/><stop offset="1" stop-color="#f48eb0"/></linearGradient><linearGradient id="t" x1="97.22" x2="97.22" xlink:href="#s"/><linearGradient id="u" x1="156.06" x2="156.06" xlink:href="#s"/><radialGradient id="v" cx="170.22" cy="408.5" fx="170.22" fy="408.5" r="43.21" gradientTransform="translate(-133.1 -71.43) scale(1.42 .8)" gradientUnits="userSpaceOnUse"><stop offset=".02" stop-color="#7e0000"/><stop offset=".28" stop-color="#540000"/><stop offset=".6" stop-color="#260000"/><stop offset=".85" stop-color="#0a0000"/><stop offset=".99" stop-color="#000"/></radialGradient><radialGradient id="w" cx="654.53" fx="654.53" r="430.7" xlink:href="#e"/><linearGradient id="x" x1="574.09" x2="952.38" xlink:href="#f"/><linearGradient id="y" x1="925.03" x2="925.03" xlink:href="#g"/><radialGradient id="a`" cx="856.76" cy="793.46" fx="856.76" fy="793.46" r="84.74" xlink:href="#e"/><linearGradient id="aa" x1="1031.17" x2="1031.17" xlink:href="#i"/><linearGradient id="ab" x1="931.52" y1="621.07" x2="931.52" y2="370.19" gradientTransform="translate(-53.66 -48.59) rotate(6.72)" xlink:href="#g"/><linearGradient id="ac" x1="1070.49" y1="396.99" x2="1070.49" y2="390.89" xlink:href="#i"/><linearGradient id="ad" x1="941.61" x2="941.61" xlink:href="#l"/><linearGradient id="ae" x1="820.56" y1="616.98" x2="820.56" y2="512.22" xlink:href="#l"/><linearGradient id="af" x1="795.5" y1="652.93" x2="795.5" y2="619.34" xlink:href="#i"/><linearGradient id="ag" x1="895.31" x2="936.55" xlink:href="#o"/><linearGradient id="ah" x1="829.8" y1="390.89" x2="875.85" y2="390.89" xlink:href="#i"/><linearGradient id="ai" x1="725.55" x2="725.55" xlink:href="#q"/><radialGradient id="aj" cx="659.31" fx="659.31" xlink:href="#r"/><linearGradient id="ak" x1="592.3" x2="592.3" xlink:href="#s"/><linearGradient id="al" x1="657.96" x2="657.96" xlink:href="#s"/><linearGradient id="am" x1="716.8" x2="716.8" xlink:href="#s"/><radialGradient id="an" cx="565.8" cy="409.51" fx="565.8" fy="409.51" r="43.21" gradientTransform="translate(-133.1 -71.43) scale(1.42 .8)" gradientUnits="userSpaceOnUse"><stop offset=".02" stop-color="#00594e"/><stop offset=".06" stop-color="#005449"/><stop offset=".48" stop-color="#002621"/><stop offset=".81" stop-color="#000a09"/><stop offset=".99" stop-color="#000"/></radialGradient></defs><g class="cf"><g id="a"/><g id="b"><g id="c"><g><g><path class="bv" d="M626.91,361.01s-11.87,1.09-11.17,35.32c0,0,20.81-14.37,11.17-35.32Z"/><g><g><polygon class="aq" points="0 824.44 13.35 183.58 216.38 183.58 191.53 824.44 0 824.44"/><path class="c`" d="M216.38,183.58c26.87-81.78,121.01-134.34,175.26-151.31l-18.65,792.18H191.53l24.84-640.86Z"/><polygon class="by" points="223.63 347.13 372.57 347.13 353.46 824.44 200.27 824.44 223.63 347.13"/><path class="as" d="M13.35,183.58S75.02,80.11,220.85,41.17l170.78-8.9s-112.51,36.99-175.26,151.31H13.35Z"/><polygon class="bx" points="223.63 347.13 219.98 421.73 337.54 425.49 372.57 347.13 223.63 347.13"/><polygon class="bx" points="23.36 225.3 206.11 227.81 203.61 274.54 23.36 274.54 23.36 225.3"/><path class="ar" d="M312.29,434.81l84.29,192.14s14.44,6.69,19.71-8.18l-83.01-197.03s-19.3-.02-20.99,13.08Z"/><path class="aw" d="M254.66,432.58l18.11,26.29s30.87-69.54,77.3-91.23l-23.07-12.27s-60.39,7.28-72.35,77.21Z"/><path class="bx" d="M272.77,458.87s39.63,1.69,64.77-33.38c21.14-29.48,12.53-57.86,12.53-57.86,0,0-62.37,4.68-77.3,91.23Z"/><path class="ax" d="M592.2,398.57h-255.94l-.03-.03c-.43-1.1-8.41-21.26,15.15-25.87l24.43-.9,227.51-8.34c7.51,11.25-.27,28.77-11.11,35.15Z"/><path class="ay" d="M284.17,435.26s25.13-11.36,21.15,6.86l-75.81,230.6s-23.25,9.22-29.24-12.06l83.9-225.41Z"/><path class="br" d="M441.43,396.99h136.64s-65.24-13.72-136.64,0Z"/><path class="at" d="M351.81,468.34l58.12,141.23s-36.09-64.46-58.12-141.23Z"/><path class="av" d="M242.41,616.98l34.84-104.76s-26.22,54.41-34.84,104.76Z"/><path class="au" d="M228.78,652.93s-.28-16.79,11.96-33.59l-11.96,33.59Z"/><path class="bu" d="M375.81,371.77v.03s-9.38,8.11-11.52,26.77h-28.04l-.03-.03c-.43-1.1-8.41-21.26,15.15-25.87l24.43-.9Z"/><path class="bw" d="M269.06,393.94l19.04,19.31s5.73-14.69,27.01-31.7l-20.99-13.03s-14.78,8.44-25.05,25.42Z"/><polygon class="ce" points="31.71 824.49 28.37 824.4 40.66 383.48 176.9 384.66 176.9 824.44 173.57 824.44 173.57 387.97 43.9 386.85 31.71 824.49"/><path class="c`" d="M216.38,183.58S228.64,67.31,316.27,0l7.93,35.78s-58.34,15.96-107.83,147.8Z"/><path class="b`" d="M13.35,183.58S121.17,43.39,236.66,0h79.62s-67.1,48.4-99.9,183.58H13.35Z"/><polygon class="bb" points="52.78 303.74 54.52 338.23 140.19 338.23 143.11 303.74 52.78 303.74"/><polygon class="bx" points="77.6 317.72 78.84 324.19 113.45 324.19 114.74 317.72 77.6 317.72"/><polygon class="bx" points="1.46 749.5 194.44 749.5 192.39 802.37 0 800.38 1.46 749.5"/><polygon class="ba" points="14.47 749.5 29.81 775.72 7 800.46 29.81 800.69 56.12 775.1 36.83 749.5 14.47 749.5"/><polygon class="ap" points="80.13 749.5 95.47 775.72 72.66 800.46 95.47 800.69 121.78 775.1 102.49 749.5 80.13 749.5"/><polygon class="ao" points="138.97 749.5 154.31 775.72 131.5 800.46 154.31 800.69 180.62 775.1 161.33 749.5 138.97 749.5"/><path class="cb" d="M131.48,63.6l112.7,28.19s32.1-53.62,52.1-72.7l-93.78-3.47s-42.55,23.57-71.02,47.99Z"/><path class="cb" d="M266,87.11l25.58,4.83s27.16-26.85,63.6-43.26l-47.53-4.14s-24.79,16.56-41.65,42.58Z"/><text class="cg" transform="translate(77.78 268.04)"><tspan x="0" y="0">ĐÓNG</tspan></text><ellipse class="cc" cx="108.19" cy="255.25" rx="61.25" ry="34.55"/></g><g><polygon class="be" points="560.74 824.44 574.09 183.58 777.12 183.58 752.27 824.44 560.74 824.44"/><path class="c`" d="M777.12,183.58c26.87-81.78,121.01-134.34,175.26-151.31l-18.65,792.18h-181.45l24.84-640.86Z"/><polygon class="by" points="784.37 347.13 933.31 347.13 914.2 824.44 761.01 824.44 784.37 347.13"/><path class="bd" d="M574.09,183.58s61.67-103.47,207.5-142.41l170.78-8.9s-112.51,36.99-175.26,151.31h-203.02Z"/><polygon class="bx" points="784.37 347.13 780.72 421.73 898.28 425.49 933.31 347.13 784.37 347.13"/><polygon class="bx" points="584.1 225.3 766.85 227.81 764.35 274.54 584.1 274.54 584.1 225.3"/><path class="bc" d="M873.03,434.81l84.29,192.14s14.44,6.69,19.71-8.18l-83.01-197.03s-19.3-.02-20.99,13.08Z"/><path class="bf" d="M815.4,432.58l18.11,26.29s30.87-69.54,77.3-91.23l-23.07-12.27s-60.39,7.28-72.35,77.21Z"/><path class="bx" d="M833.51,458.87s39.63,1.69,64.77-33.38c21.14-29.48,12.53-57.86,12.53-57.86,0,0-62.37,4.68-77.3,91.23Z"/><path class="bn" d="M1152.94,398.57h-255.94l-.03-.03c-.43-1.1-8.41-21.26,15.15-25.87l24.43-.9,227.51-8.34c7.51,11.25-.27,28.77-11.11,35.15Z"/><path class="bo" d="M844.91,435.26s25.13-11.36,21.15,6.86l-75.81,230.6s-23.25,9.22-29.24-12.06l83.9-225.41Z"/><path class="bq" d="M1002.17,396.99h136.64s-65.24-13.72-136.64,0Z"/><path class="bk" d="M912.55,468.34l58.12,141.23s-36.09-64.46-58.12-141.23Z"/><path class="bm" d="M803.15,616.98l34.84-104.76s-26.22,54.41-34.84,104.76Z"/><path class="bi" d="M789.52,652.93s-.28-16.79,11.96-33.59l-11.96,33.59Z"/><path class="bs" d="M936.55,371.77v.03s-9.38,8.11-11.52,26.77h-28.04l-.03-.03c-.43-1.1-8.41-21.26,15.15-25.87l24.43-.9Z"/><path class="bt" d="M829.8,393.94l19.04,19.31s5.73-14.69,27.01-31.7l-20.99-13.03s-14.78,8.44-25.05,25.42Z"/><polygon class="ce" points="592.45 824.49 589.11 824.4 601.4 383.48 737.64 384.66 737.64 824.44 734.31 824.44 734.31 387.97 604.64 386.85 592.45 824.49"/><path class="c`" d="M777.12,183.58s12.27-116.27,99.9-183.58l7.93,35.78s-58.34,15.96-107.83,147.8Z"/><path class="bj" d="M574.09,183.58S681.92,43.39,797.4,0h79.62s-67.1,48.4-99.9,183.58h-203.02Z"/><polygon class="bl" points="613.52 303.74 615.26 338.23 700.93 338.23 703.85 303.74 613.52 303.74"/><polygon class="bx" points="638.34 317.72 639.58 324.19 674.19 324.19 675.48 317.72 638.34 317.72"/><polygon class="bx" points="562.2 749.5 755.18 749.5 753.13 802.37 560.74 800.38 562.2 749.5"/><polygon class="bp" points="575.21 749.5 590.55 775.72 567.74 800.46 590.55 800.69 616.86 775.1 597.57 749.5 575.21 749.5"/><polygon class="bg" points="640.87 749.5 656.21 775.72 633.4 800.46 656.21 800.69 682.52 775.1 663.23 749.5 640.87 749.5"/><polygon class="bh" points="699.71 749.5 715.05 775.72 692.24 800.46 715.05 800.69 741.36 775.1 722.07 749.5 699.71 749.5"/><path class="cb" d="M692.22,63.6l112.7,28.19s32.1-53.62,52.1-72.7l-93.78-3.47s-42.55,23.57-71.02,47.99Z"/><path class="cb" d="M826.74,87.11l25.58,4.83s27.16-26.85,63.6-43.26l-47.53-4.14s-24.79,16.56-41.65,42.58Z"/><text class="ch" transform="translate(611.78 267.04)"><tspan x="0" y="0">CỬA MỞ</tspan></text><ellipse class="cd" cx="668.93" cy="256.05" rx="61.25" ry="34.55"/></g></g></g><polygon class="ca" points="613.52 303.74 615.26 338.23 700.93 338.23 703.85 303.74 613.52 303.74"/></g></g></g></g></svg>