<svg xmlns="http://www.w3.org/2000/svg" viewBox="0 0 386.01 552.47">
  <defs>
    <style>
      .e{fill:#ee4887}
    </style>
  </defs>
  <g id="b">
    <g id="c">
      <g id="d">
        <path d="M75.52 531.06c0 .51-.05.95-.14 1.32.08.35.12.79.12 1.32 0 .51-.05.95-.14 1.32.08.35.12.79.12 1.32 0 .51-.05.95-.14 1.32.08.35.12.79.12 1.32 0 .51-.05.95-.14 1.32.08.35.12.79.12 1.32 0 .51-.05.95-.14 1.32.08.35.12.79.12 1.32 0 .51-.05.95-.14 1.32l-2.64-.02c-.08-.37-.12-.81-.12-1.32 0-.53.05-.97.14-1.32-.08-.37-.12-.81-.12-1.32 0-.53.05-.97.14-1.32-.08-.37-.12-.81-.12-1.32 0-.53.05-.97.14-1.32-.08-.37-.12-.81-.12-1.32 0-.53.05-.97.14-1.32-.08-.37-.12-.81-.12-1.32 0-.53.05-.97.14-1.32h-.99c.08.34.12.78.12 1.31 0 .51-.05.95-.14 1.32.08.35.12.79.12 1.32 0 .51-.05.95-.14 1.32h-.66c.08.35.12.79.12 1.31 0 .51-.05.95-.14 1.32.08.35.12.79.12 1.32 0 .51-.05.95-.14 1.32l-1.98-.02a6.39 6.39 0 0 1-.12-1.32c0-.53.05-.97.14-1.32-.08-.37-.12-.81-.12-1.32 0-.53.05-.97.14-1.32h-.66c-.08-.38-.12-.82-.12-1.33 0-.53.05-.97.14-1.32-.08-.37-.12-.81-.12-1.32 0-.53.05-.97.14-1.32h-.99c.08.34.12.78.12 1.31 0 .51-.05.95-.14 1.32.08.35.12.79.12 1.32 0 .51-.05.95-.14 1.32.08.35.12.79.12 1.32 0 .51-.05.95-.14 1.32.08.35.12.79.12 1.32 0 .51-.05.95-.14 1.32.08.35.12.79.12 1.32 0 .51-.05.95-.14 1.32l-2.64-.02c-.08-.37-.12-.81-.12-1.32 0-.53.05-.97.14-1.32-.08-.37-.12-.81-.12-1.32 0-.53.05-.97.14-1.32-.08-.37-.12-.81-.12-1.32 0-.53.05-.97.14-1.32-.08-.37-.12-.81-.12-1.32 0-.53.05-.97.14-1.32-.08-.37-.12-.81-.12-1.32 0-.53.05-.97.14-1.32-.08-.37-.12-.81-.12-1.32 0-.53.05-.97.14-1.32a6.39 6.39 0 0 1-.12-1.32c0-.53.05-.97.14-1.32l3.3.03c.08.35.12.79.12 1.32 0 .51-.05.95-.14 1.32h.99c.08.36.12.8.12 1.33 0 .51-.05.95-.14 1.32h.5c.08.36.12.8.12 1.33 0 .51-.05.95-.14 1.32h.99a6.29 6.29 0 0 1-.12-1.31c0-.53.05-.97.14-1.32h.5c-.08-.37-.12-.81-.12-1.32 0-.53.05-.97.14-1.32h.99a6.29 6.29 0 0 1-.12-1.31c0-.53.05-.97.14-1.32l3.3.03c.08.35.12.79.12 1.32 0 .51-.05.95-.14 1.32.08.35.12.79.12 1.32ZM88.82 543.06c.08.35.12.79.12 1.32 0 .51-.05.95-.14 1.32l-2.64-.02c-.08-.37-.12-.81-.12-1.32 0-.53.05-.97.14-1.32-.08-.37-.12-.81-.12-1.32 0-.53.05-.97.14-1.32l-5.28-.05c.08.35.12.79.12 1.32 0 .51-.05.95-.14 1.32.08.35.12.79.12 1.32 0 .51-.05.95-.14 1.32l-2.64-.02c-.08-.37-.12-.81-.12-1.32 0-.53.05-.97.14-1.32-.08-.37-.12-.81-.12-1.32 0-.53.05-.97.14-1.32h.99a6.29 6.29 0 0 1-.12-1.31c0-.53.05-.97.14-1.32-.08-.37-.12-.81-.12-1.32 0-.53.05-.97.14-1.32h.66c-.08-.37-.12-.81-.12-1.32 0-.53.05-.97.14-1.32h.99a6.29 6.29 0 0 1-.12-1.31c0-.53.05-.97.14-1.32h.66a6.29 6.29 0 0 1-.12-1.31c0-.53.05-.97.14-1.32l3.96.04c.08.35.12.79.12 1.32 0 .51-.05.95-.14 1.32h.66c.08.36.12.8.12 1.33 0 .51-.05.95-.14 1.32h.99c.08.36.12.8.12 1.33 0 .51-.05.95-.14 1.32h.66c.08.36.12.8.12 1.33 0 .51-.05.95-.14 1.32.08.35.12.79.12 1.32 0 .51-.05.95-.14 1.32h.99c.08.36.12.8.12 1.33 0 .51-.05.95-.14 1.32Zm-10.36-21.22 1.98.02c.08.35.12.79.12 1.32 0 .51-.05.95-.14 1.32l-1.98-.02a6.39 6.39 0 0 1-.12-1.32c0-.53.05-.97.14-1.32Zm5.94.06 2.64.02c.08.35.12.79.12 1.32 0 .51-.05.95-.14 1.32l-3.96-.04a6.39 6.39 0 0 1-.12-1.32c0-.53.05-.97.14-1.32l-2.64-.02c-.08-.37-.12-.81-.12-1.32 0-.53.05-.97.14-1.32l3.96.04c.08.35.12.79.12 1.32 0 .51-.05.95-.14 1.32Zm.72 14.53c0-.53.05-.97.14-1.32h-.66c-.08-.38-.12-.82-.12-1.33 0-.53.05-.97.14-1.32l-1.98-.02c.08.35.12.79.12 1.32 0 .51-.05.95-.14 1.32h-.66c.08.35.12.79.12 1.31 0 .51-.05.95-.14 1.32l3.3.03c-.08-.37-.12-.81-.12-1.32Zm3.9-14.48-1.98-.02c-.08-.37-.12-.81-.12-1.32 0-.53.05-.97.14-1.32l1.98.02c.08.35.12.79.12 1.32 0 .51-.05.95-.14 1.32ZM116.08 536.72c0 .51-.05.95-.14 1.32.08.35.12.79.12 1.32 0 .51-.05.95-.14 1.32h-.99c.08.34.12.78.12 1.31 0 .51-.05.95-.14 1.32l-1.65-.02c.08.35.12.79.12 1.32 0 .51-.05.95-.14 1.32l-5.28-.05c-.08-.37-.12-.81-.12-1.32 0-.53.05-.97.14-1.32l-1.65-.02c-.08-.37-.12-.81-.12-1.32 0-.53.05-.97.14-1.32h-.99c-.08-.38-.12-.82-.12-1.33 0-.53.05-.97.14-1.32-.08-.37-.12-.81-.12-1.32 0-.53.05-.97.14-1.32-.08-.37-.12-.81-.12-1.32 0-.53.05-.97.14-1.32h.99a6.29 6.29 0 0 1-.12-1.31c0-.53.05-.97.14-1.32l1.65.02c-.08-.37-.12-.81-.12-1.32 0-.53.05-.97.14-1.32l5.28.05c.08.35.12.79.12 1.32 0 .51-.05.95-.14 1.32l1.65.02c.08.35.12.79.12 1.32 0 .51-.05.95-.14 1.32h.99c.08.36.12.8.12 1.33 0 .51-.05.95-.14 1.32.08.35.12.79.12 1.32Zm-2.93 2.61c0-.53.05-.97.14-1.32-.08-.37-.12-.81-.12-1.32 0-.53.05-.97.14-1.32-.08-.37-.12-.81-.12-1.32 0-.53.05-.97.14-1.32h-.99c-.08-.38-.12-.82-.12-1.33 0-.53.05-.97.14-1.32l-3.3-.03c.08.35.12.79.12 1.32 0 .51-.05.95-.14 1.32h-.99c.08.34.12.78.12 1.31 0 .51-.05.95-.14 1.32.08.35.12.79.12 1.32 0 .51-.05.95-.14 1.32.08.35.12.79.12 1.32 0 .51-.05.95-.14 1.32h.99c.08.36.12.8.12 1.33 0 .51-.05.95-.14 1.32l3.3.03c-.08-.37-.12-.81-.12-1.32 0-.53.05-.97.14-1.32h.99a6.29 6.29 0 0 1-.12-1.31ZM129.52 530.24l-3.96-.04c.08.35.12.79.12 1.32 0 .51-.05.95-.14 1.32.08.35.12.79.12 1.32 0 .51-.05.95-.14 1.32.08.35.12.79.12 1.32 0 .51-.05.95-.14 1.32.08.35.12.79.12 1.32 0 .51-.05.95-.14 1.32.08.35.12.79.12 1.32 0 .51-.05.95-.14 1.32.08.35.12.79.12 1.32 0 .51-.05.95-.14 1.32l-2.64-.02a6.39 6.39 0 0 1-.12-1.32c0-.53.05-.97.14-1.32-.08-.37-.12-.81-.12-1.32 0-.53.05-.97.14-1.32a6.39 6.39 0 0 1-.12-1.32c0-.53.05-.97.14-1.32-.08-.37-.12-.81-.12-1.32 0-.53.05-.97.14-1.32a6.39 6.39 0 0 1-.12-1.32c0-.53.05-.97.14-1.32-.08-.37-.12-.81-.12-1.32 0-.53.05-.97.14-1.32l-3.96-.04a6.39 6.39 0 0 1-.12-1.32c0-.53.05-.97.14-1.32l10.56.1c.08.35.12.79.12 1.32 0 .51-.05.95-.14 1.32ZM143.03 533.01c.08.35.12.79.12 1.32 0 .51-.05.95-.14 1.32h-1.32c.08.34.12.78.12 1.31 0 .51-.05.95-.14 1.32l-6.6-.06c.08.35.12.79.12 1.32 0 .51-.05.95-.14 1.32.08.35.12.79.12 1.32 0 .51-.05.95-.14 1.32.08.35.12.79.12 1.32 0 .51-.05.95-.14 1.32l-2.64-.02c-.08-.37-.12-.81-.12-1.32 0-.53.05-.97.14-1.32-.08-.37-.12-.81-.12-1.32 0-.53.05-.97.14-1.32-.08-.37-.12-.81-.12-1.32 0-.53.05-.97.14-1.32-.08-.37-.12-.81-.12-1.32 0-.53.05-.97.14-1.32-.08-.37-.12-.81-.12-1.32 0-.53.05-.97.14-1.32-.08-.37-.12-.81-.12-1.32 0-.53.05-.97.14-1.32a6.39 6.39 0 0 1-.12-1.32c0-.53.05-.97.14-1.32l9.24.09c.08.35.12.79.12 1.32 0 .51-.05.95-.14 1.32h1.32c.08.37.12.81.12 1.33 0 .51-.05.95-.14 1.32Zm-2.78 1.29c0-.53.05-.97.14-1.32a6.39 6.39 0 0 1-.12-1.32c0-.53.05-.97.14-1.32l-5.28-.05c.08.35.12.79.12 1.32 0 .51-.05.95-.14 1.32.08.35.12.79.12 1.32 0 .51-.05.95-.14 1.32l5.28.05c-.08-.37-.12-.81-.12-1.32ZM170.17 537.23c0 .51-.05.95-.14 1.32.08.35.12.79.12 1.32 0 .51-.05.95-.14 1.32h-1.32c.08.34.12.78.12 1.31 0 .51-.05.95-.14 1.32h-1.32c.08.34.12.78.12 1.31 0 .51-.05.95-.14 1.32l-7.92-.07c-.08-.37-.12-.81-.12-1.32 0-.53.05-.97.14-1.32h1.32c-.08-.36-.12-.8-.12-1.31 0-.53.05-.97.14-1.32-.08-.37-.12-.81-.12-1.32 0-.53.05-.97.14-1.32h-1.32c-.08-.39-.12-.83-.12-1.33 0-.53.05-.97.14-1.32h1.32c-.08-.36-.12-.8-.12-1.31 0-.53.05-.97.14-1.32-.08-.37-.12-.81-.12-1.32 0-.53.05-.97.14-1.32h-1.32c-.08-.39-.12-.83-.12-1.33 0-.53.05-.97.14-1.32l7.92.07c.08.35.12.79.12 1.32 0 .51-.05.95-.14 1.32h1.32c.08.37.12.81.12 1.33 0 .51-.05.95-.14 1.32h1.32c.08.37.12.81.12 1.33 0 .51-.05.95-.14 1.32.08.35.12.79.12 1.32Zm-2.93 2.61c0-.53.05-.97.14-1.32-.08-.37-.12-.81-.12-1.32 0-.53.05-.97.14-1.32-.08-.37-.12-.81-.12-1.32 0-.53.05-.97.14-1.32h-1.32c-.08-.39-.12-.83-.12-1.33 0-.53.05-.97.14-1.32l-2.64-.02c.08.35.12.79.12 1.32 0 .51-.05.95-.14 1.32.08.35.12.79.12 1.32 0 .51-.05.95-.14 1.32h1.32c.08.37.12.81.12 1.33 0 .51-.05.95-.14 1.32h-1.32c.08.34.12.78.12 1.31 0 .51-.05.95-.14 1.32.08.35.12.79.12 1.32 0 .51-.05.95-.14 1.32l2.64.02c-.08-.37-.12-.81-.12-1.32 0-.53.05-.97.14-1.32h1.32c-.08-.36-.12-.8-.12-1.31ZM183.52 543.95c.08.35.12.79.12 1.32 0 .51-.05.95-.14 1.32l-2.64-.02c-.08-.37-.12-.81-.12-1.32 0-.53.05-.97.14-1.32-.08-.37-.12-.81-.12-1.32 0-.53.05-.97.14-1.32l-5.28-.05c.08.35.12.79.12 1.32 0 .51-.05.95-.14 1.32.08.35.12.79.12 1.32 0 .51-.05.95-.14 1.32l-2.64-.02c-.08-.37-.12-.81-.12-1.32 0-.53.05-.97.14-1.32-.08-.37-.12-.81-.12-1.32 0-.53.05-.97.14-1.32h.99a6.29 6.29 0 0 1-.12-1.31c0-.53.05-.97.14-1.32-.08-.37-.12-.81-.12-1.32 0-.53.05-.97.14-1.32h.66c-.08-.37-.12-.81-.12-1.32 0-.53.05-.97.14-1.32h.99a6.29 6.29 0 0 1-.12-1.31c0-.53.05-.97.14-1.32h.66a6.29 6.29 0 0 1-.12-1.31c0-.53.05-.97.14-1.32l3.96.04c.08.35.12.79.12 1.32 0 .51-.05.95-.14 1.32h.66c.08.36.12.8.12 1.33 0 .51-.05.95-.14 1.32h.99c.08.36.12.8.12 1.33 0 .51-.05.95-.14 1.32h.66c.08.36.12.8.12 1.33 0 .51-.05.95-.14 1.32.08.35.12.79.12 1.32 0 .51-.05.95-.14 1.32h.99c.08.36.12.8.12 1.33 0 .51-.05.95-.14 1.32Zm-7.7-23.83c.08.35.12.79.12 1.32 0 .51-.05.95-.14 1.32l-2.64-.02c-.08-.37-.12-.81-.12-1.32 0-.53.05-.97.14-1.32l2.64.02Zm5.25 2.69c.08.35.12.79.12 1.32 0 .51-.05.95-.14 1.32l-5.28-.05c-.08-.37-.12-.81-.12-1.32 0-.53.05-.97.14-1.32l5.28.05Zm-1.26 14.51c0-.53.05-.97.14-1.32h-.66c-.08-.38-.12-.82-.12-1.33 0-.53.05-.97.14-1.32l-1.98-.02c.08.35.12.79.12 1.32 0 .51-.05.95-.14 1.32h-.66c.08.35.12.79.12 1.31 0 .51-.05.95-.14 1.32l3.3.03c-.08-.37-.12-.81-.12-1.32Zm-.31 11.88c.08.35.12.79.12 1.32 0 .51-.05.94-.14 1.32l-2.64-.02a6.46 6.46 0 0 1-.12-1.32c0-.53.05-.97.14-1.32l2.64.02Zm4.23-29c.08.35.12.79.12 1.32 0 .51-.05.95-.14 1.32l-2.64-.02a6.39 6.39 0 0 1-.12-1.32c0-.53.05-.97.14-1.32l2.64.02ZM197.09 541.44c.08.35.12.79.12 1.32 0 .51-.05.95-.14 1.32h-1.32c.08.34.12.78.12 1.31 0 .51-.05.95-.14 1.32l-6.6-.06c-.08-.37-.12-.81-.12-1.32 0-.53.05-.97.14-1.32h-1.32c-.08-.39-.12-.83-.12-1.33 0-.53.05-.97.14-1.32h-1.32c-.08-.39-.12-.83-.12-1.33 0-.53.05-.97.14-1.32-.08-.37-.12-.81-.12-1.32 0-.53.05-.97.14-1.32-.08-.37-.12-.81-.12-1.32 0-.53.05-.97.14-1.32h1.32c-.08-.36-.12-.8-.12-1.31 0-.53.05-.97.14-1.32h1.32c-.08-.36-.12-.8-.12-1.31 0-.53.05-.97.14-1.32l6.6.06c.08.35.12.79.12 1.32 0 .51-.05.95-.14 1.32h1.32c.08.37.12.81.12 1.33 0 .51-.05.95-.14 1.32l-2.64-.02c-.08-.37-.12-.81-.12-1.32 0-.53.05-.97.14-1.32l-3.96-.04c.08.35.12.79.12 1.32 0 .51-.05.95-.14 1.32h-1.32c.08.34.12.78.12 1.31 0 .51-.05.95-.14 1.32.08.35.12.79.12 1.32 0 .51-.05.95-.14 1.32.08.35.12.79.12 1.32 0 .51-.05.95-.14 1.32h1.32c.08.37.12.81.12 1.33 0 .51-.05.95-.14 1.32l3.96.04c-.08-.37-.12-.81-.12-1.32 0-.53.05-.97.14-1.32l2.64.02ZM224.18 536.41h-1.32c.08.34.12.78.12 1.31 0 .51-.05.95-.14 1.32h1.32c.08.37.12.81.12 1.33 0 .51-.05.95-.14 1.32.08.35.12.79.12 1.32 0 .51-.05.95-.14 1.32h-1.32c.08.34.12.78.12 1.31 0 .51-.05.95-.14 1.32l-9.24-.09c-.08-.37-.12-.81-.12-1.32 0-.53.05-.97.14-1.32-.08-.37-.12-.81-.12-1.32 0-.53.05-.97.14-1.32-.08-.37-.12-.81-.12-1.32 0-.53.05-.97.14-1.32-.08-.37-.12-.81-.12-1.32 0-.53.05-.97.14-1.32-.08-.37-.12-.81-.12-1.32 0-.53.05-.97.14-1.32-.08-.37-.12-.81-.12-1.32 0-.53.05-.97.14-1.32a6.39 6.39 0 0 1-.12-1.32c0-.53.05-.97.14-1.32l9.24.09c.08.35.12.79.12 1.32 0 .51-.05.95-.14 1.32h1.32c.08.37.12.81.12 1.33 0 .51-.05.95-.14 1.32.08.35.12.79.12 1.32 0 .51-.05.95-.14 1.32Zm-2.81 3.93c0-.53.05-.97.14-1.32l-5.28-.05c.08.35.12.79.12 1.32 0 .51-.05.95-.14 1.32.08.35.12.79.12 1.32 0 .51-.05.95-.14 1.32l5.28.05c-.08-.37-.12-.81-.12-1.32 0-.53.05-.97.14-1.32-.08-.37-.12-.81-.12-1.32Zm.05-5.28c0-.53.05-.97.14-1.32-.08-.37-.12-.81-.12-1.32 0-.53.05-.97.14-1.32l-5.28-.05c.08.35.12.79.12 1.32 0 .51-.05.95-.14 1.32.08.35.12.79.12 1.32 0 .51-.05.95-.14 1.32l5.28.05c-.08-.37-.12-.81-.12-1.32ZM235.67 544.44c.08.35.12.79.12 1.32 0 .51-.05.95-.14 1.32l-6.6-.06a6.39 6.39 0 0 1-.12-1.32c0-.53.05-.97.14-1.32l1.98.02c-.08-.37-.12-.81-.12-1.32 0-.53.05-.97.14-1.32a6.39 6.39 0 0 1-.12-1.32c0-.53.05-.97.14-1.32-.08-.37-.12-.81-.12-1.32 0-.53.05-.97.14-1.32a6.39 6.39 0 0 1-.12-1.32c0-.53.05-.97.14-1.32-.08-.37-.12-.81-.12-1.32 0-.53.05-.97.14-1.32l-1.98-.02a6.39 6.39 0 0 1-.12-1.32c0-.53.05-.97.14-1.32l6.6.06c.08.35.12.79.12 1.32 0 .51-.05.95-.14 1.32l-1.98-.02c.08.35.12.79.12 1.32 0 .51-.05.95-.14 1.32.08.35.12.79.12 1.32 0 .51-.05.95-.14 1.32.08.35.12.79.12 1.32 0 .51-.05.95-.14 1.32.08.35.12.79.12 1.32 0 .51-.05.95-.14 1.32.08.35.12.79.12 1.32 0 .51-.05.95-.14 1.32l1.98.02ZM244.62 539.25c.08.35.12.79.12 1.32 0 .51-.05.95-.14 1.32.08.35.12.79.12 1.32 0 .51-.05.95-.14 1.32l5.28.05c.08.35.12.79.12 1.32 0 .51-.05.95-.14 1.32l-7.92-.07c-.08-.37-.12-.81-.12-1.32 0-.53.05-.97.14-1.32-.08-.37-.12-.81-.12-1.32 0-.53.05-.97.14-1.32-.08-.37-.12-.81-.12-1.32 0-.53.05-.97.14-1.32-.08-.37-.12-.81-.12-1.32 0-.53.05-.97.14-1.32-.08-.37-.12-.81-.12-1.32 0-.53.05-.97.14-1.32-.08-.37-.12-.81-.12-1.32 0-.53.05-.97.14-1.32-.08-.37-.12-.81-.12-1.32 0-.53.05-.97.14-1.32l7.92.07c.08.35.12.79.12 1.32 0 .51-.05.95-.14 1.32l-5.28-.05c.08.35.12.79.12 1.32 0 .51-.05.95-.14 1.32.08.35.12.79.12 1.32 0 .51-.05.95-.14 1.32l5.28.05c.08.35.12.79.12 1.32 0 .51-.05.95-.14 1.32l-5.28-.05Zm5.22-14.47c0 .51-.05.95-.14 1.32l-2.64-.02c-.08-.37-.12-.81-.12-1.32 0-.53.05-.97.14-1.32l-1.98-.02c.08.35.12.79.12 1.32 0 .51-.05.95-.14 1.32l-2.64-.02c-.08-.37-.12-.81-.12-1.32 0-.53.05-.97.14-1.32l1.65.02a6.39 6.39 0 0 1-.12-1.32c0-.53.05-.97.14-1.32l3.96.04c.08.35.12.79.12 1.32 0 .51-.05.95-.14 1.32l1.65.02c.08.35.12.79.12 1.32Zm-2.68 25.06c.08.35.12.79.12 1.32 0 .51-.05.95-.14 1.32l-2.64-.02a6.46 6.46 0 0 1-.12-1.32c0-.53.05-.97.14-1.32l2.64.02ZM264.84 531.52l-3.96-.04c.08.35.12.79.12 1.32 0 .51-.05.95-.14 1.32.08.35.12.79.12 1.32 0 .51-.05.95-.14 1.32.08.35.12.79.12 1.32 0 .51-.05.95-.14 1.32.08.35.12.79.12 1.32 0 .51-.05.95-.14 1.32.08.35.12.79.12 1.32 0 .51-.05.95-.14 1.32.08.35.12.79.12 1.32 0 .51-.05.95-.14 1.32l-2.64-.02a6.39 6.39 0 0 1-.12-1.32c0-.53.05-.97.14-1.32-.08-.37-.12-.81-.12-1.32 0-.53.05-.97.14-1.32a6.39 6.39 0 0 1-.12-1.32c0-.53.05-.97.14-1.32-.08-.37-.12-.81-.12-1.32 0-.53.05-.97.14-1.32a6.39 6.39 0 0 1-.12-1.32c0-.53.05-.97.14-1.32-.08-.37-.12-.81-.12-1.32 0-.53.05-.97.14-1.32l-3.96-.04a6.39 6.39 0 0 1-.12-1.32c0-.53.05-.97.14-1.32l10.56.1c.08.35.12.79.12 1.32 0 .51-.05.95-.14 1.32Z"/>
        <g>
          <path class="e" d="M102.51 237.26h-3.6c.08.32.12.72.12 1.2s-.04.86-.12 1.2c.08.32.12.72.12 1.2s-.04.86-.12 1.2c.08.32.12.72.12 1.2s-.04.86-.12 1.2c.08.32.12.72.12 1.2s-.04.86-.12 1.2c.08.32.12.72.12 1.2s-.04.86-.12 1.2c.08.32.12.72.12 1.2s-.04.86-.12 1.2h-2.4c-.08-.34-.12-.74-.12-1.2s.04-.88.12-1.2c-.08-.34-.12-.74-.12-1.2s.04-.88.12-1.2c-.08-.34-.12-.74-.12-1.2s.04-.88.12-1.2c-.08-.34-.12-.74-.12-1.2s.04-.88.12-1.2c-.08-.34-.12-.74-.12-1.2s.04-.88.12-1.2c-.08-.34-.12-.74-.12-1.2s.04-.88.12-1.2h-3.6c-.08-.34-.12-.74-.12-1.2s.04-.88.12-1.2h9.6c.08.32.12.72.12 1.2s-.04.86-.12 1.2ZM112.71 249.26c.08.32.12.72.12 1.2s-.04.86-.12 1.2h-6c-.08-.34-.12-.74-.12-1.2s.04-.88.12-1.2h1.8c-.08-.34-.12-.74-.12-1.2s.04-.88.12-1.2c-.08-.34-.12-.74-.12-1.2s.04-.88.12-1.2c-.08-.34-.12-.74-.12-1.2s.04-.88.12-1.2c-.08-.34-.12-.74-.12-1.2s.04-.88.12-1.2c-.08-.34-.12-.74-.12-1.2s.04-.88.12-1.2h-1.8c-.08-.34-.12-.74-.12-1.2s.04-.88.12-1.2h6c.08.32.12.72.12 1.2s-.04.86-.12 1.2h-1.8c.08.32.12.72.12 1.2s-.04.86-.12 1.2c.08.32.12.72.12 1.2s-.04.86-.12 1.2c.08.32.12.72.12 1.2s-.04.86-.12 1.2c.08.32.12.72.12 1.2s-.04.86-.12 1.2c.08.32.12.72.12 1.2s-.04.86-.12 1.2h1.8Zm-5.4-19.2c-.08-.34-.12-.74-.12-1.2s.04-.88.12-1.2h2.4c.08.32.12.72.12 1.2s-.04.86-.12 1.2h1.2c.08.32.12.72.12 1.2s-.04.86-.12 1.2h-2.4c-.08-.34-.12-.74-.12-1.2s.04-.88.12-1.2h-1.2ZM126.63 238.46c0 .46-.04.86-.12 1.2.08.32.12.72.12 1.2s-.04.86-.12 1.2c.08.32.12.72.12 1.2s-.04.86-.12 1.2c.08.32.12.72.12 1.2s-.04.86-.12 1.2c.08.32.12.72.12 1.2s-.04.86-.12 1.2c.08.32.12.72.12 1.2s-.04.86-.12 1.2h-2.4c-.08-.34-.12-.74-.12-1.2s.04-.88.12-1.2h-1.5c-.08-.34-.12-.74-.12-1.2s.04-.88.12-1.2h-.9c-.08-.34-.12-.74-.12-1.2s.04-.88.12-1.2h-1.2c-.08-.34-.12-.74-.12-1.2s.04-.88.12-1.2h-1.2c.08.32.12.72.12 1.2s-.04.86-.12 1.2c.08.32.12.72.12 1.2s-.04.86-.12 1.2c.08.32.12.72.12 1.2s-.04.86-.12 1.2c.08.32.12.72.12 1.2s-.04.86-.12 1.2h-2.4c-.08-.34-.12-.74-.12-1.2s.04-.88.12-1.2c-.08-.34-.12-.74-.12-1.2s.04-.88.12-1.2c-.08-.34-.12-.74-.12-1.2s.04-.88.12-1.2c-.08-.34-.12-.74-.12-1.2s.04-.88.12-1.2c-.08-.34-.12-.74-.12-1.2s.04-.88.12-1.2c-.08-.34-.12-.74-.12-1.2s.04-.88.12-1.2c-.08-.34-.12-.74-.12-1.2s.04-.88.12-1.2h3c.08.32.12.72.12 1.2s-.04.86-.12 1.2h.9c.08.32.12.72.12 1.2s-.04.86-.12 1.2h.9c.08.32.12.72.12 1.2s-.04.86-.12 1.2h1.2c.08.32.12.72.12 1.2s-.04.86-.12 1.2h1.2c-.08-.34-.12-.74-.12-1.2s.04-.88.12-1.2c-.08-.34-.12-.74-.12-1.2s.04-.88.12-1.2c-.08-.34-.12-.74-.12-1.2s.04-.88.12-1.2c-.08-.34-.12-.74-.12-1.2s.04-.88.12-1.2h2.4c.08.32.12.72.12 1.2s-.04.86-.12 1.2c.08.32.12.72.12 1.2ZM138.63 238.46c0 .46-.04.86-.12 1.2.08.32.12.72.12 1.2s-.04.86-.12 1.2c.08.32.12.72.12 1.2s-.04.86-.12 1.2c.08.32.12.72.12 1.2s-.04.86-.12 1.2c.08.32.12.72.12 1.2s-.04.86-.12 1.2c.08.32.12.72.12 1.2s-.04.86-.12 1.2h-2.4c-.08-.34-.12-.74-.12-1.2s.04-.88.12-1.2c-.08-.34-.12-.74-.12-1.2s.04-.88.12-1.2c-.08-.34-.12-.74-.12-1.2s.04-.88.12-1.2h-4.8c.08.32.12.72.12 1.2s-.04.86-.12 1.2c.08.32.12.72.12 1.2s-.04.86-.12 1.2c.08.32.12.72.12 1.2s-.04.86-.12 1.2h-2.4c-.08-.34-.12-.74-.12-1.2s.04-.88.12-1.2c-.08-.34-.12-.74-.12-1.2s.04-.88.12-1.2c-.08-.34-.12-.74-.12-1.2s.04-.88.12-1.2c-.08-.34-.12-.74-.12-1.2s.04-.88.12-1.2c-.08-.34-.12-.74-.12-1.2s.04-.88.12-1.2c-.08-.34-.12-.74-.12-1.2s.04-.88.12-1.2c-.08-.34-.12-.74-.12-1.2s.04-.88.12-1.2h2.4c.08.32.12.72.12 1.2s-.04.86-.12 1.2c.08.32.12.72.12 1.2s-.04.86-.12 1.2c.08.32.12.72.12 1.2s-.04.86-.12 1.2h4.8c-.08-.34-.12-.74-.12-1.2s.04-.88.12-1.2c-.08-.34-.12-.74-.12-1.2s.04-.88.12-1.2c-.08-.34-.12-.74-.12-1.2s.04-.88.12-1.2h2.4c.08.32.12.72.12 1.2s-.04.86-.12 1.2c.08.32.12.72.12 1.2ZM162.51 237.26c.08.32.12.72.12 1.2s-.04.86-.12 1.2h-1.2c.08.32.12.72.12 1.2s-.04.86-.12 1.2h-1.2c.08.32.12.72.12 1.2s-.04.86-.12 1.2h-1.2c.08.32.12.72.12 1.2s-.04.86-.12 1.2c.08.32.12.72.12 1.2s-.04.86-.12 1.2c.08.32.12.72.12 1.2s-.04.86-.12 1.2h-2.4c-.08-.34-.12-.74-.12-1.2s.04-.88.12-1.2c-.08-.34-.12-.74-.12-1.2s.04-.88.12-1.2c-.08-.34-.12-.74-.12-1.2s.04-.88.12-1.2h-1.2c-.08-.34-.12-.74-.12-1.2s.04-.88.12-1.2h-1.2c-.08-.34-.12-.74-.12-1.2s.04-.88.12-1.2h-1.2c-.08-.34-.12-.74-.12-1.2s.04-.88.12-1.2c-.08-.34-.12-.74-.12-1.2s.04-.88.12-1.2h2.4c.08.32.12.72.12 1.2s-.04.86-.12 1.2c.08.32.12.72.12 1.2s-.04.86-.12 1.2h1.2c.08.32.12.72.12 1.2s-.04.86-.12 1.2h2.4c-.08-.34-.12-.74-.12-1.2s.04-.88.12-1.2h1.2c-.08-.34-.12-.74-.12-1.2s.04-.88.12-1.2c-.08-.34-.12-.74-.12-1.2s.04-.88.12-1.2h2.4c.08.32.12.72.12 1.2s-.04.86-.12 1.2ZM168.51 244.46c.08.32.12.72.12 1.2s-.04.86-.12 1.2c.08.32.12.72.12 1.2s-.04.86-.12 1.2h4.8c.08.32.12.72.12 1.2s-.04.86-.12 1.2h-7.2c-.08-.34-.12-.74-.12-1.2s.04-.88.12-1.2c-.08-.34-.12-.74-.12-1.2s.04-.88.12-1.2c-.08-.34-.12-.74-.12-1.2s.04-.88.12-1.2c-.08-.34-.12-.74-.12-1.2s.04-.88.12-1.2c-.08-.34-.12-.74-.12-1.2s.04-.88.12-1.2c-.08-.34-.12-.74-.12-1.2s.04-.88.12-1.2c-.08-.34-.12-.74-.12-1.2s.04-.88.12-1.2h7.2c.08.32.12.72.12 1.2s-.04.86-.12 1.2h-4.8c.08.32.12.72.12 1.2s-.04.86-.12 1.2c.08.32.12.72.12 1.2s-.04.86-.12 1.2h4.8c.08.32.12.72.12 1.2s-.04.86-.12 1.2h-4.8Zm4.62-13.2c0 .46-.04.86-.12 1.2h-2.4c-.08-.34-.12-.74-.12-1.2s.04-.88.12-1.2h-1.8c.08.32.12.72.12 1.2s-.04.86-.12 1.2h-2.4c-.08-.34-.12-.74-.12-1.2s.04-.88.12-1.2h1.5c-.08-.34-.12-.74-.12-1.2s.04-.88.12-1.2h3.6c.08.32.12.72.12 1.2s-.04.86-.12 1.2h1.5c.08.32.12.72.12 1.2ZM186.63 238.46c0 .46-.04.86-.12 1.2.08.32.12.72.12 1.2s-.04.86-.12 1.2c.08.32.12.72.12 1.2s-.04.86-.12 1.2c.08.32.12.72.12 1.2s-.04.86-.12 1.2c.08.32.12.72.12 1.2s-.04.86-.12 1.2h-1.2c.08.32.12.72.12 1.2s-.04.86-.12 1.2h-7.2c-.08-.34-.12-.74-.12-1.2s.04-.88.12-1.2h-1.2c-.08-.34-.12-.74-.12-1.2s.04-.88.12-1.2c-.08-.34-.12-.74-.12-1.2s.04-.88.12-1.2c-.08-.34-.12-.74-.12-1.2s.04-.88.12-1.2c-.08-.34-.12-.74-.12-1.2s.04-.88.12-1.2c-.08-.34-.12-.74-.12-1.2s.04-.88.12-1.2c-.08-.34-.12-.74-.12-1.2s.04-.88.12-1.2h2.4c.08.32.12.72.12 1.2s-.04.86-.12 1.2c.08.32.12.72.12 1.2s-.04.86-.12 1.2c.08.32.12.72.12 1.2s-.04.86-.12 1.2c.08.32.12.72.12 1.2s-.04.86-.12 1.2c.08.32.12.72.12 1.2s-.04.86-.12 1.2c.08.32.12.72.12 1.2s-.04.86-.12 1.2h4.8c-.08-.34-.12-.74-.12-1.2s.04-.88.12-1.2c-.08-.34-.12-.74-.12-1.2s.04-.88.12-1.2c-.08-.34-.12-.74-.12-1.2s.04-.88.12-1.2c-.08-.34-.12-.74-.12-1.2s.04-.88.12-1.2c-.08-.34-.12-.74-.12-1.2s.04-.88.12-1.2c-.08-.34-.12-.74-.12-1.2s.04-.88.12-1.2h2.4c.08.32.12.72.12 1.2s-.04.86-.12 1.2c.08.32.12.72.12 1.2Z"/>
        </g>
        <g>
          <path class="e" d="M307.26 237.46c0 .46-.04.86-.12 1.2.08.32.12.72.12 1.2s-.04.86-.12 1.2c.08.32.12.72.12 1.2s-.04.86-.12 1.2c.08.32.12.72.12 1.2s-.04.86-.12 1.2c.08.32.12.72.12 1.2s-.04.86-.12 1.2c.08.32.12.72.12 1.2s-.04.86-.12 1.2h-2.4c-.08-.34-.12-.74-.12-1.2s.04-.88.12-1.2h-1.5c-.08-.34-.12-.74-.12-1.2s.04-.88.12-1.2h-.9c-.08-.34-.12-.74-.12-1.2s.04-.88.12-1.2h-1.2c-.08-.34-.12-.74-.12-1.2s.04-.88.12-1.2h-1.2c.08.32.12.72.12 1.2s-.04.86-.12 1.2c.08.32.12.72.12 1.2s-.04.86-.12 1.2c.08.32.12.72.12 1.2s-.04.86-.12 1.2c.08.32.12.72.12 1.2s-.04.86-.12 1.2h-2.4c-.08-.34-.12-.74-.12-1.2s.04-.88.12-1.2c-.08-.34-.12-.74-.12-1.2s.04-.88.12-1.2c-.08-.34-.12-.74-.12-1.2s.04-.88.12-1.2c-.08-.34-.12-.74-.12-1.2s.04-.88.12-1.2c-.08-.34-.12-.74-.12-1.2s.04-.88.12-1.2c-.08-.34-.12-.74-.12-1.2s.04-.88.12-1.2c-.08-.34-.12-.74-.12-1.2s.04-.88.12-1.2h3c.08.32.12.72.12 1.2s-.04.86-.12 1.2h.9c.08.32.12.72.12 1.2s-.04.86-.12 1.2h.9c.08.32.12.72.12 1.2s-.04.86-.12 1.2h1.2c.08.32.12.72.12 1.2s-.04.86-.12 1.2h1.2c-.08-.34-.12-.74-.12-1.2s.04-.88.12-1.2c-.08-.34-.12-.74-.12-1.2s.04-.88.12-1.2c-.08-.34-.12-.74-.12-1.2s.04-.88.12-1.2c-.08-.34-.12-.74-.12-1.2s.04-.88.12-1.2h2.4c.08.32.12.72.12 1.2s-.04.86-.12 1.2c.08.32.12.72.12 1.2ZM316.59 248.26c.08.32.12.72.12 1.2s-.04.86-.12 1.2h-6c-.08-.34-.12-.74-.12-1.2s.04-.88.12-1.2h1.8c-.08-.34-.12-.74-.12-1.2s.04-.88.12-1.2c-.08-.34-.12-.74-.12-1.2s.04-.88.12-1.2c-.08-.34-.12-.74-.12-1.2s.04-.88.12-1.2c-.08-.34-.12-.74-.12-1.2s.04-.88.12-1.2c-.08-.34-.12-.74-.12-1.2s.04-.88.12-1.2h-1.8c-.08-.34-.12-.74-.12-1.2s.04-.88.12-1.2h6c.08.32.12.72.12 1.2s-.04.86-.12 1.2h-1.8c.08.32.12.72.12 1.2s-.04.86-.12 1.2c.08.32.12.72.12 1.2s-.04.86-.12 1.2c.08.32.12.72.12 1.2s-.04.86-.12 1.2c.08.32.12.72.12 1.2s-.04.86-.12 1.2c.08.32.12.72.12 1.2s-.04.86-.12 1.2h1.8ZM322.44 226.66h-2.4c-.08-.34-.12-.74-.12-1.2s.04-.88.12-1.2h-1.2c-.08-.34-.12-.74-.12-1.2s.04-.88.12-1.2h2.4c.08.32.12.72.12 1.2s-.04.86-.12 1.2h1.2c.08.32.12.72.12 1.2s-.04.86-.12 1.2Zm1.2 16.8c.08.32.12.72.12 1.2s-.04.86-.12 1.2c.08.32.12.72.12 1.2s-.04.86-.12 1.2h4.8c.08.32.12.72.12 1.2s-.04.86-.12 1.2h-7.2c-.08-.34-.12-.74-.12-1.2s.04-.88.12-1.2c-.08-.34-.12-.74-.12-1.2s.04-.88.12-1.2c-.08-.34-.12-.74-.12-1.2s.04-.88.12-1.2c-.08-.34-.12-.74-.12-1.2s.04-.88.12-1.2c-.08-.34-.12-.74-.12-1.2s.04-.88.12-1.2c-.08-.34-.12-.74-.12-1.2s.04-.88.12-1.2c-.08-.34-.12-.74-.12-1.2s.04-.88.12-1.2h7.2c.08.32.12.72.12 1.2s-.04.86-.12 1.2h-4.8c.08.32.12.72.12 1.2s-.04.86-.12 1.2c.08.32.12.72.12 1.2s-.04.86-.12 1.2h4.8c.08.32.12.72.12 1.2s-.04.86-.12 1.2h-4.8Zm-.6-14.4c-.08-.34-.12-.74-.12-1.2s.04-.88.12-1.2h3.6c.08.32.12.72.12 1.2s-.04.86-.12 1.2h1.5c.08.32.12.72.12 1.2s-.04.86-.12 1.2h-2.4c-.08-.34-.12-.74-.12-1.2s.04-.88.12-1.2h-1.8c.08.32.12.72.12 1.2s-.04.86-.12 1.2h-2.4c-.08-.34-.12-.74-.12-1.2s.04-.88.12-1.2h1.5ZM341.01 237.46c0 .46-.04.86-.12 1.2.08.32.12.72.12 1.2s-.04.86-.12 1.2c.08.32.12.72.12 1.2s-.04.86-.12 1.2c.08.32.12.72.12 1.2s-.04.86-.12 1.2c.08.32.12.72.12 1.2s-.04.86-.12 1.2c.08.32.12.72.12 1.2s-.04.86-.12 1.2h-2.4c-.08-.34-.12-.74-.12-1.2s.04-.88.12-1.2c-.08-.34-.12-.74-.12-1.2s.04-.88.12-1.2c-.08-.34-.12-.74-.12-1.2s.04-.88.12-1.2c-.08-.34-.12-.74-.12-1.2s.04-.88.12-1.2c-.08-.34-.12-.74-.12-1.2s.04-.88.12-1.2h-.9c.08.32.12.72.12 1.2s-.04.86-.12 1.2c.08.32.12.72.12 1.2s-.04.86-.12 1.2h-.6c.08.32.12.72.12 1.2s-.04.86-.12 1.2c.08.32.12.72.12 1.2s-.04.86-.12 1.2h-1.8c-.08-.34-.12-.74-.12-1.2s.04-.88.12-1.2c-.08-.34-.12-.74-.12-1.2s.04-.88.12-1.2h-.6c-.08-.34-.12-.74-.12-1.2s.04-.88.12-1.2c-.08-.34-.12-.74-.12-1.2s.04-.88.12-1.2h-.9c.08.32.12.72.12 1.2s-.04.86-.12 1.2c.08.32.12.72.12 1.2s-.04.86-.12 1.2c.08.32.12.72.12 1.2s-.04.86-.12 1.2c.08.32.12.72.12 1.2s-.04.86-.12 1.2c.08.32.12.72.12 1.2s-.04.86-.12 1.2h-2.4c-.08-.34-.12-.74-.12-1.2s.04-.88.12-1.2c-.08-.34-.12-.74-.12-1.2s.04-.88.12-1.2c-.08-.34-.12-.74-.12-1.2s.04-.88.12-1.2c-.08-.34-.12-.74-.12-1.2s.04-.88.12-1.2c-.08-.34-.12-.74-.12-1.2s.04-.88.12-1.2c-.08-.34-.12-.74-.12-1.2s.04-.88.12-1.2c-.08-.34-.12-.74-.12-1.2s.04-.88.12-1.2h3c.08.32.12.72.12 1.2s-.04.86-.12 1.2h.9c.08.32.12.72.12 1.2s-.04.86-.12 1.2h.45c.08.32.12.72.12 1.2s-.04.86-.12 1.2h.9c-.08-.34-.12-.74-.12-1.2s.04-.88.12-1.2h.45c-.08-.34-.12-.74-.12-1.2s.04-.88.12-1.2h.9c-.08-.34-.12-.74-.12-1.2s.04-.88.12-1.2h3c.08.32.12.72.12 1.2s-.04.86-.12 1.2c.08.32.12.72.12 1.2ZM363.39 236.26h-3.6c.08.32.12.72.12 1.2s-.04.86-.12 1.2c.08.32.12.72.12 1.2s-.04.86-.12 1.2c.08.32.12.72.12 1.2s-.04.86-.12 1.2c.08.32.12.72.12 1.2s-.04.86-.12 1.2c.08.32.12.72.12 1.2s-.04.86-.12 1.2c.08.32.12.72.12 1.2s-.04.86-.12 1.2h-2.4c-.08-.34-.12-.74-.12-1.2s.04-.88.12-1.2c-.08-.34-.12-.74-.12-1.2s.04-.88.12-1.2c-.08-.34-.12-.74-.12-1.2s.04-.88.12-1.2c-.08-.34-.12-.74-.12-1.2s.04-.88.12-1.2c-.08-.34-.12-.74-.12-1.2s.04-.88.12-1.2c-.08-.34-.12-.74-.12-1.2s.04-.88.12-1.2h-3.6c-.08-.34-.12-.74-.12-1.2s.04-.88.12-1.2h9.6c.08.32.12.72.12 1.2s-.04.86-.12 1.2ZM372.84 248.26c.08.32.12.72.12 1.2s-.04.86-.12 1.2h-6c-.08-.34-.12-.74-.12-1.2s.04-.88.12-1.2h1.8c-.08-.34-.12-.74-.12-1.2s.04-.88.12-1.2c-.08-.34-.12-.74-.12-1.2s.04-.88.12-1.2c-.08-.34-.12-.74-.12-1.2s.04-.88.12-1.2c-.08-.34-.12-.74-.12-1.2s.04-.88.12-1.2c-.08-.34-.12-.74-.12-1.2s.04-.88.12-1.2h-1.8c-.08-.34-.12-.74-.12-1.2s.04-.88.12-1.2h6c.08.32.12.72.12 1.2s-.04.86-.12 1.2h-1.8c.08.32.12.72.12 1.2s-.04.86-.12 1.2c.08.32.12.72.12 1.2s-.04.86-.12 1.2c.08.32.12.72.12 1.2s-.04.86-.12 1.2c.08.32.12.72.12 1.2s-.04.86-.12 1.2c.08.32.12.72.12 1.2s-.04.86-.12 1.2h1.8ZM386.01 237.46c0 .46-.04.86-.12 1.2.08.32.12.72.12 1.2s-.04.86-.12 1.2c.08.32.12.72.12 1.2s-.04.86-.12 1.2c.08.32.12.72.12 1.2s-.04.86-.12 1.2c.08.32.12.72.12 1.2s-.04.86-.12 1.2c.08.32.12.72.12 1.2s-.04.86-.12 1.2h-2.4c-.08-.34-.12-.74-.12-1.2s.04-.88.12-1.2h-1.5c-.08-.34-.12-.74-.12-1.2s.04-.88.12-1.2h-.9c-.08-.34-.12-.74-.12-1.2s.04-.88.12-1.2h-1.2c-.08-.34-.12-.74-.12-1.2s.04-.88.12-1.2h-1.2c.08.32.12.72.12 1.2s-.04.86-.12 1.2c.08.32.12.72.12 1.2s-.04.86-.12 1.2c.08.32.12.72.12 1.2s-.04.86-.12 1.2c.08.32.12.72.12 1.2s-.04.86-.12 1.2h-2.4c-.08-.34-.12-.74-.12-1.2s.04-.88.12-1.2c-.08-.34-.12-.74-.12-1.2s.04-.88.12-1.2c-.08-.34-.12-.74-.12-1.2s.04-.88.12-1.2c-.08-.34-.12-.74-.12-1.2s.04-.88.12-1.2c-.08-.34-.12-.74-.12-1.2s.04-.88.12-1.2c-.08-.34-.12-.74-.12-1.2s.04-.88.12-1.2c-.08-.34-.12-.74-.12-1.2s.04-.88.12-1.2h3c.08.32.12.72.12 1.2s-.04.86-.12 1.2h.9c.08.32.12.72.12 1.2s-.04.86-.12 1.2h.9c.08.32.12.72.12 1.2s-.04.86-.12 1.2h1.2c.08.32.12.72.12 1.2s-.04.86-.12 1.2h1.2c-.08-.34-.12-.74-.12-1.2s.04-.88.12-1.2c-.08-.34-.12-.74-.12-1.2s.04-.88.12-1.2c-.08-.34-.12-.74-.12-1.2s.04-.88.12-1.2c-.08-.34-.12-.74-.12-1.2s.04-.88.12-1.2h2.4c.08.32.12.72.12 1.2s-.04.86-.12 1.2c.08.32.12.72.12 1.2Z"/>
        </g>
        <g>
          <path class="e" d="M11.82 43.32c0 .61-.04 1.15-.14 1.6l-11.2.17c-.11-.45-.18-.98-.18-1.6-.01-.64.03-1.17.14-1.6-.11-.45-.18-.98-.18-1.6-.01-.64.03-1.17.14-1.6-.11-.45-.18-.98-.18-1.6-.01-.64.03-1.17.14-1.6-.11-.45-.18-.98-.18-1.6-.01-.64.03-1.17.14-1.6-.11-.45-.18-.98-.19-1.6 0-.64.04-1.17.14-1.6-.11-.45-.18-.98-.19-1.6 0-.64.04-1.17.14-1.6-.11-.45-.18-.98-.19-1.6 0-.64.04-1.17.14-1.6l3.2-.05c.11.43.17.96.18 1.6 0 .61-.04 1.15-.14 1.6.11.43.17.96.19 1.6 0 .61-.04 1.15-.14 1.6.11.43.17.96.19 1.6 0 .61-.04 1.15-.14 1.6.11.42.17.96.19 1.6 0 .61-.04 1.15-.14 1.6.11.43.17.96.19 1.6 0 .61-.04 1.15-.14 1.6.11.43.17.96.18 1.6 0 .61-.04 1.15-.14 1.6l8-.12c.11.43.17.96.18 1.6ZM35.77 39.75c0 .61-.04 1.15-.14 1.6.11.42.17.96.18 1.6 0 .61-.04 1.15-.14 1.6l-3.2.05c-.11-.45-.18-.98-.18-1.6 0-.64.03-1.17.14-1.6-.11-.45-.18-.98-.18-1.6-.01-.64.03-1.17.14-1.6l-6.4.1c.11.43.17.96.18 1.6 0 .61-.04 1.15-.14 1.6.11.42.17.96.18 1.6 0 .61-.04 1.15-.14 1.6l-3.2.05c-.11-.45-.17-.98-.18-1.6 0-.64.04-1.17.14-1.6-.11-.45-.17-.98-.18-1.6 0-.64.04-1.17.14-1.6l1.2-.02c-.11-.45-.18-.98-.18-1.6-.01-.64.03-1.17.14-1.6-.11-.45-.18-.98-.18-1.6-.01-.64.03-1.17.14-1.6h.8c-.11-.46-.18-1-.18-1.61-.01-.64.03-1.17.14-1.6l1.2-.02c-.11-.45-.18-.98-.18-1.6 0-.64.04-1.17.14-1.6h.8c-.11-.46-.17-1-.18-1.61 0-.64.04-1.17.14-1.6l4.8-.07c.11.43.17.96.18 1.6 0 .61-.04 1.15-.14 1.6h.8c.11.41.17.94.18 1.58 0 .61-.04 1.15-.14 1.6l1.2-.02c.11.43.17.96.18 1.6 0 .61-.04 1.15-.14 1.6h.8c.11.41.17.95.18 1.58 0 .61-.04 1.15-.14 1.6.11.43.17.96.18 1.6 0 .61-.04 1.15-.14 1.6l1.2-.02c.11.43.17.96.18 1.6ZM24.49 19.12c-.11-.45-.18-.98-.18-1.6-.01-.64.03-1.17.14-1.6l2-.03c-.11-.45-.18-.98-.18-1.6 0-.64.04-1.17.14-1.6l4.8-.07c.11.43.17.96.19 1.6 0 .61-.04 1.15-.14 1.6l2-.03c.11.43.17.96.18 1.6 0 .61-.04 1.15-.14 1.6l-3.2.05c-.11-.45-.18-.98-.18-1.6 0-.64.04-1.17.14-1.6l-2.4.04c.11.43.17.96.18 1.6 0 .61-.04 1.15-.14 1.6l-3.2.05Zm6.46 14.3c0-.64.04-1.17.14-1.6h-.8c-.11-.44-.18-.97-.18-1.58 0-.64.04-1.17.14-1.6l-2.4.04c.11.43.17.96.18 1.6 0 .61-.04 1.15-.14 1.6h-.8c.11.44.17.97.19 1.61 0 .61-.04 1.15-.14 1.6l4-.06c-.11-.45-.17-.98-.18-1.6Zm5.79-24.09-1.6.02c.11.43.17.96.19 1.6 0 .61-.04 1.15-.14 1.6l-3.2.05c-.11-.45-.18-.98-.18-1.6-.01-.64.03-1.17.14-1.6l1.6-.02c-.11-.45-.18-.98-.18-1.6 0-.64.04-1.17.14-1.6l3.2-.05c.11.43.17.96.18 1.6 0 .61-.04 1.15-.14 1.6ZM59.4 24.99c.11.43.17.96.19 1.6 0 .61-.04 1.15-.14 1.6l-1.6.02c.11.42.17.96.18 1.6 0 .61-.04 1.15-.14 1.6l-1.6.02c.11.43.17.96.18 1.6 0 .61-.04 1.15-.14 1.6l-1.6.02c.11.43.17.96.18 1.6 0 .61-.04 1.15-.14 1.6.11.43.17.96.19 1.6 0 .61-.04 1.15-.14 1.6.11.43.17.96.19 1.6 0 .61-.04 1.15-.14 1.6l-3.2.05c-.11-.45-.18-.98-.19-1.6 0-.64.04-1.17.14-1.6-.11-.45-.18-.98-.19-1.6 0-.64.04-1.17.14-1.6-.11-.45-.18-.98-.19-1.6 0-.64.04-1.17.14-1.6l-1.6.02c-.11-.45-.18-.98-.18-1.6 0-.64.04-1.17.14-1.6l-1.6.02c-.11-.45-.18-.98-.19-1.6 0-.64.04-1.17.14-1.6l-1.6.02c-.11-.45-.18-.98-.18-1.6 0-.64.04-1.17.14-1.6-.11-.45-.18-.98-.18-1.6 0-.64.04-1.17.14-1.6l3.2-.05c.11.42.17.96.18 1.6 0 .61-.04 1.15-.14 1.6.11.42.17.96.18 1.6 0 .61-.04 1.15-.14 1.6l1.6-.02c.11.43.17.96.19 1.6 0 .61-.04 1.15-.14 1.6l3.2-.05c-.11-.45-.17-.98-.18-1.6 0-.64.04-1.17.14-1.6l1.6-.02c-.11-.45-.18-.98-.19-1.6 0-.64.04-1.17.14-1.6-.11-.45-.18-.98-.19-1.6 0-.64.04-1.17.14-1.6l3.2-.05c.11.42.17.96.19 1.6 0 .61-.04 1.15-.14 1.6ZM107.57 25.84c0 .61-.04 1.15-.14 1.6.11.43.17.96.18 1.6 0 .61-.04 1.15-.14 1.6l-1.2.02c.11.43.17.96.18 1.6 0 .61-.04 1.15-.14 1.6l-1.2.02c.11.42.17.96.18 1.6 0 .61-.04 1.15-.14 1.6h-.8c.11.44.17.97.18 1.61 0 .61-.04 1.15-.14 1.6l-1.6.02c.11.43.17.96.19 1.6 0 .61-.04 1.15-.14 1.6l-3.2.05c-.11-.45-.18-.98-.19-1.6 0-.64.04-1.17.14-1.6l-1.6.02c-.11-.45-.18-.98-.18-1.6 0-.64.04-1.17.14-1.6h-.8c-.11-.44-.18-.97-.18-1.58 0-.64.04-1.17.14-1.6l-1.2.02c-.11-.45-.18-.98-.19-1.6 0-.64.04-1.17.14-1.6l-1.2.02c-.11-.45-.17-.98-.18-1.6 0-.64.04-1.17.14-1.6-.11-.45-.17-.98-.18-1.6 0-.64.04-1.17.14-1.6-.11-.45-.18-.98-.18-1.6 0-.64.04-1.17.14-1.6l3.2-.05c.11.42.17.96.18 1.6 0 .61-.04 1.15-.14 1.6.11.42.17.96.18 1.6 0 .61-.04 1.15-.14 1.6.11.43.17.96.18 1.6 0 .61-.04 1.15-.14 1.6l1.2-.02c.11.43.17.96.19 1.6 0 .61-.04 1.15-.14 1.6l1.2-.02c.11.43.17.96.18 1.6 0 .61-.04 1.15-.14 1.6l1.6-.02c-.11-.45-.18-.98-.18-1.6 0-.64.04-1.17.14-1.6l1.2-.02c-.11-.45-.17-.98-.18-1.6 0-.64.04-1.17.14-1.6l1.2-.02c-.11-.45-.18-.98-.18-1.6-.01-.64.03-1.17.14-1.6-.11-.45-.18-.98-.18-1.6-.01-.64.03-1.17.14-1.6-.11-.45-.18-.98-.18-1.6-.01-.64.03-1.17.14-1.6l3.2-.05c.11.42.17.96.18 1.6 0 .61-.04 1.15-.14 1.6.11.43.17.96.18 1.6ZM123.53 33.6c.11.43.17.96.18 1.6 0 .61-.04 1.15-.14 1.6.11.43.17.96.18 1.6 0 .61-.04 1.15-.14 1.6l6.4-.1c.11.43.17.96.18 1.6 0 .61-.04 1.15-.14 1.6l-9.6.15c-.11-.45-.18-.98-.18-1.6-.01-.64.03-1.17.14-1.6-.11-.45-.18-.98-.18-1.6-.01-.64.03-1.17.14-1.6-.11-.45-.18-.98-.18-1.6-.01-.64.03-1.17.14-1.6-.11-.45-.18-.98-.18-1.6-.01-.64.03-1.17.14-1.6-.11-.45-.18-.98-.18-1.6-.01-.64.03-1.17.14-1.6-.11-.45-.18-.98-.19-1.6 0-.64.04-1.17.14-1.6-.11-.45-.18-.98-.19-1.6 0-.64.04-1.17.14-1.6l9.6-.15c.11.43.17.96.18 1.6 0 .61-.04 1.15-.14 1.6l-6.4.1c.11.43.17.96.19 1.6 0 .61-.04 1.15-.14 1.6.11.43.17.96.19 1.6 0 .61-.04 1.15-.14 1.6l6.4-.1c.11.42.17.96.18 1.6 0 .61-.04 1.15-.14 1.6l-6.4.1Zm-.25-16c-.11-.45-.17-.98-.18-1.6 0-.64.04-1.17.14-1.6l1.6-.02c-.11-.45-.18-.98-.18-1.6-.01-.64.03-1.17.14-1.6l3.2-.05c.11.43.17.96.18 1.6 0 .61-.04 1.15-.14 1.6l-1.6.02c.11.42.17.96.18 1.6 0 .61-.04 1.15-.14 1.6l-3.2.05ZM179.57 24.73c0 .61-.04 1.15-.14 1.6.11.43.17.96.19 1.6 0 .61-.04 1.15-.14 1.6.11.43.17.96.18 1.6 0 .61-.04 1.15-.14 1.6.11.43.17.96.18 1.6 0 .61-.04 1.15-.14 1.6.11.42.17.96.18 1.6 0 .61-.04 1.15-.14 1.6.11.43.17.96.18 1.6 0 .61-.04 1.15-.14 1.6l-3.2.05c-.11-.45-.18-.98-.18-1.6 0-.64.03-1.17.14-1.6-.11-.45-.18-.98-.18-1.6-.01-.64.03-1.17.14-1.6-.11-.45-.18-.98-.18-1.6-.01-.64.03-1.17.14-1.6-.11-.45-.18-.98-.18-1.6-.01-.64.03-1.17.14-1.6-.11-.45-.18-.98-.18-1.6-.01-.64.03-1.17.14-1.6l-1.2.02c.11.43.17.96.19 1.6 0 .61-.04 1.15-.14 1.6.11.43.17.96.19 1.6 0 .61-.04 1.15-.14 1.6h-.8c.11.44.17.97.18 1.61 0 .61-.04 1.15-.14 1.6.11.43.17.96.18 1.6 0 .61-.04 1.15-.14 1.6l-2.4.04c-.11-.45-.18-.98-.18-1.6-.01-.64.03-1.17.14-1.6-.11-.45-.18-.98-.19-1.6 0-.64.04-1.17.14-1.6h-.8c-.11-.44-.17-.97-.18-1.58 0-.64.04-1.17.14-1.6-.11-.45-.17-.98-.18-1.6 0-.64.04-1.17.14-1.6l-1.2.02c.11.43.17.96.18 1.6 0 .61-.04 1.15-.14 1.6.11.43.17.96.18 1.6 0 .61-.04 1.15-.14 1.6.11.43.17.96.18 1.6 0 .61-.04 1.15-.14 1.6.11.43.17.96.18 1.6 0 .61-.04 1.15-.14 1.6.11.42.17.96.18 1.6 0 .61-.04 1.15-.14 1.6l-3.2.05c-.11-.45-.17-.98-.18-1.6 0-.64.04-1.17.14-1.6-.11-.45-.17-.98-.18-1.6 0-.64.04-1.17.14-1.6-.11-.45-.17-.98-.18-1.6 0-.64.04-1.17.14-1.6-.11-.45-.18-.98-.18-1.6 0-.64.04-1.17.14-1.6-.11-.45-.18-.98-.18-1.6 0-.64.04-1.17.14-1.6-.11-.45-.18-.98-.18-1.6 0-.64.04-1.17.14-1.6-.11-.45-.18-.98-.18-1.6 0-.64.04-1.17.14-1.6l4-.06c.11.43.17.96.18 1.6 0 .61-.04 1.15-.14 1.6l1.2-.02c.11.43.17.96.19 1.6 0 .61-.04 1.15-.14 1.6h.6c.11.42.17.95.18 1.59 0 .61-.04 1.15-.14 1.6l1.2-.02c-.11-.45-.18-.98-.19-1.6 0-.64.04-1.17.14-1.6h.6c-.11-.46-.18-.99-.18-1.61 0-.64.04-1.17.14-1.6l1.2-.02c-.11-.45-.17-.98-.18-1.6 0-.64.04-1.17.14-1.6l4-.06c.11.42.17.96.19 1.6 0 .61-.04 1.15-.14 1.6.11.43.17.96.19 1.6ZM201.24 38.8c.11.43.17.96.18 1.6 0 .61-.04 1.15-.13 1.6l-8 .12c-.11-.45-.18-.98-.19-1.6 0-.64.04-1.17.14-1.6l2.4-.04c-.11-.45-.17-.98-.18-1.6 0-.64.04-1.17.14-1.6-.11-.45-.18-.98-.18-1.6 0-.64.04-1.17.13-1.6-.11-.45-.17-.98-.18-1.6 0-.64.04-1.17.14-1.6-.11-.45-.18-.98-.18-1.6 0-.64.04-1.17.13-1.6-.11-.45-.17-.98-.18-1.6 0-.64.04-1.17.14-1.6l-2.4.04c-.11-.45-.17-.98-.18-1.6 0-.64.04-1.17.14-1.6l8-.12c.11.43.17.96.18 1.6 0 .61-.04 1.15-.14 1.6l-2.4.04c.11.43.17.96.18 1.6 0 .61-.04 1.15-.13 1.6.11.43.17.96.18 1.6 0 .61-.04 1.15-.14 1.6.11.42.17.96.18 1.6 0 .61-.04 1.15-.13 1.6.11.43.17.96.18 1.6 0 .61-.04 1.15-.14 1.6.11.43.17.96.18 1.6 0 .61-.04 1.15-.13 1.6l2.4-.04ZM214.3 3.4l2.4-.04c.11.43.17.96.18 1.6 0 .61-.04 1.15-.13 1.6l-2.4.04c-.11-.45-.18-.98-.19-1.6 0-.64.04-1.17.14-1.6Zm5.24 28.72c.11.43.17.96.18 1.6 0 .61-.04 1.15-.13 1.6.11.43.17.96.18 1.6 0 .61-.04 1.15-.14 1.6l6.4-.1c.11.43.17.96.18 1.6 0 .61-.04 1.15-.13 1.6l-9.6.15c-.11-.45-.17-.98-.18-1.6 0-.64.04-1.17.14-1.6-.11-.45-.17-.98-.18-1.6 0-.64.04-1.17.13-1.6-.11-.45-.17-.98-.18-1.6 0-.64.04-1.17.14-1.6-.11-.45-.18-.98-.18-1.6 0-.64.04-1.17.13-1.6-.11-.45-.17-.98-.18-1.6 0-.64.04-1.17.14-1.6-.11-.45-.18-.98-.18-1.6 0-.64.04-1.17.13-1.6-.11-.45-.17-.98-.18-1.6 0-.64.04-1.17.14-1.6l9.6-.15c.11.43.17.96.18 1.6 0 .61-.04 1.15-.13 1.6l-6.4.1c.11.43.17.96.18 1.6 0 .61-.04 1.15-.14 1.6.11.43.17.96.18 1.6 0 .61-.04 1.15-.13 1.6l6.4-.1c.11.42.17.96.18 1.6 0 .61-.04 1.15-.14 1.6l-6.4.1Zm5.89-17.69c0 .61-.04 1.15-.14 1.6l-3.2.05c-.11-.45-.18-.98-.19-1.6 0-.64.04-1.17.14-1.6l-2.4.04c.11.43.17.96.18 1.6 0 .61-.04 1.15-.14 1.6l-3.2.05c-.11-.45-.18-.98-.18-1.6 0-.64.04-1.17.13-1.6l2-.03c-.11-.45-.17-.98-.18-1.6 0-.64.04-1.17.14-1.6l4.8-.07c.11.43.17.96.18 1.6 0 .61-.04 1.15-.13 1.6l2-.03c.11.43.17.96.19 1.6ZM221.5 3.29l3.2-.05c.11.43.17.96.18 1.6 0 .61-.04 1.15-.13 1.6l-4.8.07c-.11-.45-.17-.98-.18-1.6 0-.64.04-1.17.14-1.6l-3.2.05c-.11-.45-.17-.98-.18-1.6 0-.64.04-1.17.14-1.6l4.8-.07c.11.42.17.96.19 1.6 0 .61-.04 1.15-.14 1.6Zm5.6-.09-2.4.04c-.11-.45-.17-.98-.18-1.6 0-.64.04-1.17.14-1.6l2.4-.04c.11.42.17.96.18 1.6 0 .61-.04 1.15-.13 1.6ZM251.57 23.62c0 .61-.04 1.15-.14 1.6.11.43.17.96.18 1.6 0 .61-.04 1.15-.13 1.6.11.43.17.96.18 1.6 0 .61-.04 1.15-.14 1.6.11.43.17.96.18 1.6 0 .61-.04 1.15-.13 1.6.11.42.17.96.18 1.6 0 .61-.04 1.15-.14 1.6.11.42.17.96.18 1.6 0 .61-.04 1.15-.13 1.6l-3.2.05c-.11-.45-.17-.98-.18-1.6 0-.64.04-1.17.14-1.6l-2 .03c-.11-.45-.17-.98-.18-1.6 0-.64.04-1.17.14-1.6l-1.2.02c-.11-.45-.17-.98-.18-1.6 0-.64.04-1.17.13-1.6l-1.6.02c-.11-.45-.17-.98-.18-1.6 0-.64.04-1.17.14-1.6l-1.6.02c.11.43.17.96.18 1.6 0 .61-.04 1.15-.14 1.6.11.43.17.96.18 1.6 0 .61-.04 1.15-.13 1.6.11.43.17.96.18 1.6 0 .61-.04 1.15-.14 1.6.11.42.17.96.18 1.6 0 .61-.04 1.15-.13 1.6l-3.2.05c-.11-.45-.17-.98-.18-1.6 0-.64.04-1.17.14-1.6-.11-.45-.18-.98-.18-1.6 0-.64.03-1.17.13-1.6-.11-.45-.17-.98-.18-1.6 0-.64.04-1.17.14-1.6-.11-.45-.18-.98-.18-1.6-.01-.64.03-1.17.13-1.6-.11-.45-.17-.98-.18-1.6 0-.64.04-1.17.14-1.6-.11-.45-.18-.98-.18-1.6-.01-.64.03-1.17.13-1.6-.11-.45-.17-.98-.18-1.6 0-.64.04-1.17.14-1.6l4-.06c.11.43.17.96.18 1.6 0 .61-.04 1.15-.13 1.6l1.2-.02c.11.43.17.96.18 1.6 0 .61-.04 1.15-.13 1.6l1.2-.02c.11.43.17.96.19 1.6 0 .61-.04 1.15-.14 1.6l1.6-.02c.11.42.17.96.18 1.6 0 .61-.04 1.15-.13 1.6l1.6-.02c-.11-.45-.18-.98-.18-1.6 0-.64.04-1.17.13-1.6-.11-.45-.17-.98-.18-1.6 0-.64.04-1.17.14-1.6-.11-.45-.18-.98-.18-1.6 0-.64.04-1.17.13-1.6-.11-.45-.17-.98-.18-1.6 0-.64.04-1.17.14-1.6l3.2-.05c.11.42.17.96.18 1.6 0 .61-.04 1.15-.13 1.6.11.43.17.96.18 1.6ZM299.44 24.49c.11.43.17.96.18 1.6 0 .61-.04 1.15-.13 1.6l-1.6.02c.11.42.17.96.18 1.6 0 .61-.04 1.15-.14 1.6l-8 .12c.11.43.17.96.18 1.6 0 .61-.04 1.15-.13 1.6.11.43.17.96.18 1.6 0 .61-.04 1.15-.14 1.6.11.42.17.96.18 1.6 0 .61-.04 1.15-.13 1.6l-3.2.05c-.11-.45-.17-.98-.18-1.6 0-.64.04-1.17.14-1.6-.11-.45-.18-.98-.18-1.6-.01-.64.03-1.17.13-1.6-.11-.45-.17-.98-.18-1.6 0-.64.04-1.17.14-1.6-.11-.45-.18-.98-.18-1.6-.01-.64.03-1.17.13-1.6-.11-.45-.17-.98-.18-1.6 0-.64.04-1.17.14-1.6-.11-.45-.18-.98-.18-1.6-.01-.64.03-1.17.13-1.6-.11-.45-.17-.98-.18-1.6 0-.64.04-1.17.14-1.6l11.2-.17c.11.43.17.96.18 1.6 0 .61-.04 1.15-.13 1.6l1.6-.02c.11.43.17.96.18 1.6 0 .61-.04 1.15-.14 1.6Zm-3.33 1.65c0-.64.04-1.17.14-1.6-.11-.45-.18-.98-.18-1.6 0-.64.04-1.17.13-1.6l-6.4.1c.11.42.17.96.19 1.6 0 .61-.04 1.15-.14 1.6.11.43.17.96.18 1.6 0 .61-.04 1.15-.13 1.6l6.4-.1c-.11-.45-.17-.98-.18-1.6ZM323.58 22.51c0 .61-.04 1.15-.14 1.6.11.43.17.96.18 1.6 0 .61-.04 1.15-.13 1.6.11.43.17.96.18 1.6 0 .61-.04 1.15-.14 1.6.11.43.17.96.18 1.6 0 .61-.04 1.15-.13 1.6.11.42.17.96.18 1.6 0 .61-.04 1.15-.14 1.6.11.42.17.96.18 1.6 0 .61-.04 1.15-.13 1.6l-3.2.05c-.11-.45-.17-.98-.18-1.6 0-.64.04-1.17.14-1.6-.11-.45-.17-.98-.18-1.6 0-.64.04-1.17.13-1.6-.11-.45-.17-.98-.18-1.6 0-.64.04-1.17.14-1.6l-6.4.1c.11.43.17.96.18 1.6 0 .61-.04 1.15-.13 1.6.11.43.17.96.18 1.6 0 .61-.04 1.15-.14 1.6.11.42.17.96.18 1.6 0 .61-.04 1.15-.13 1.6l-3.2.05c-.11-.45-.17-.98-.18-1.6 0-.64.04-1.17.14-1.6-.11-.45-.18-.98-.18-1.6 0-.64.03-1.17.13-1.6-.11-.45-.17-.98-.18-1.6 0-.64.04-1.17.14-1.6-.11-.45-.18-.98-.18-1.6-.01-.64.03-1.17.13-1.6-.11-.45-.17-.98-.18-1.6 0-.64.04-1.17.14-1.6-.11-.45-.18-.98-.18-1.6-.01-.64.03-1.17.13-1.6-.11-.45-.17-.98-.18-1.6 0-.64.04-1.17.14-1.6l3.2-.05c.11.42.17.96.18 1.6 0 .61-.04 1.15-.13 1.6.11.42.17.96.18 1.6 0 .61-.04 1.15-.14 1.6.11.43.17.96.18 1.6 0 .61-.04 1.15-.13 1.6l6.4-.1c-.11-.45-.17-.98-.18-1.6 0-.64.04-1.17.14-1.6-.11-.45-.18-.98-.18-1.6 0-.64.04-1.17.13-1.6-.11-.45-.17-.98-.18-1.6 0-.64.04-1.17.14-1.6l3.2-.05c.11.42.17.96.18 1.6 0 .61-.04 1.15-.13 1.6.11.43.17.96.18 1.6ZM345.24 36.58c.11.43.17.96.18 1.6 0 .61-.04 1.15-.13 1.6l-8 .12c-.11-.45-.18-.98-.19-1.6 0-.64.04-1.17.14-1.6l2.4-.04c-.11-.45-.17-.98-.18-1.6 0-.64.04-1.17.14-1.6-.11-.45-.18-.98-.18-1.6 0-.64.04-1.17.13-1.6-.11-.45-.17-.98-.18-1.6 0-.64.04-1.17.14-1.6-.11-.45-.18-.98-.18-1.6 0-.64.04-1.17.13-1.6-.11-.45-.17-.98-.18-1.6 0-.64.04-1.17.14-1.6l-2.4.04c-.11-.45-.17-.98-.18-1.6 0-.64.04-1.17.14-1.6l8-.12c.11.43.17.96.18 1.6 0 .61-.04 1.15-.14 1.6l-2.4.04c.11.43.17.96.18 1.6 0 .61-.04 1.15-.13 1.6.11.43.17.96.18 1.6 0 .61-.04 1.15-.14 1.6.11.42.17.96.18 1.6 0 .61-.04 1.15-.13 1.6.11.43.17.96.18 1.6 0 .61-.04 1.15-.14 1.6.11.43.17.96.18 1.6 0 .61-.04 1.15-.13 1.6l2.4-.04Zm-5.94-22.31c-.11-.45-.18-.98-.18-1.6-.01-.64.03-1.17.13-1.6l1.6-.02c-.11-.45-.17-.98-.18-1.6 0-.64.04-1.17.14-1.6l3.2-.05c.11.43.17.96.18 1.6 0 .61-.04 1.15-.13 1.6l-1.6.02c.11.43.17.96.18 1.6 0 .61-.04 1.15-.14 1.6l-3.2.05ZM366.78 21.85c0 .61-.04 1.15-.13 1.6.11.43.17.96.18 1.6 0 .61-.04 1.15-.14 1.6.11.42.17.96.18 1.6 0 .61-.04 1.15-.13 1.6.11.43.17.96.18 1.6 0 .61-.04 1.15-.14 1.6l-3.2.05c-.11-.45-.18-.98-.18-1.6 0-.64.04-1.17.13-1.6-.11-.45-.17-.98-.18-1.6 0-.64.04-1.17.14-1.6-.11-.45-.18-.98-.18-1.6 0-.64.04-1.17.13-1.6-.11-.45-.17-.98-.18-1.6 0-.64.04-1.17.14-1.6-.11-.45-.18-.98-.18-1.6 0-.64.04-1.17.13-1.6l3.2-.05c.11.43.17.96.18 1.6 0 .61-.04 1.15-.14 1.6.11.43.17.96.18 1.6Zm.06 14.4c.11.43.17.96.18 1.6 0 .61-.04 1.15-.14 1.6l-3.2.05c-.11-.45-.18-.98-.18-1.6 0-.64.04-1.17.13-1.6l3.2-.05Z"/>
        </g>
      </g>
    </g>
  </g>
</svg>
